<svg width="55" height="49" viewBox="0 0 55 49" fill="none" xmlns="http://www.w3.org/2000/svg">
<path fill-rule="evenodd" clip-rule="evenodd" d="M53.0286 44.5751H1.97124C1.7741 44.5751 1.62625 44.2876 1.47841 44L0.591309 46.588C0.936291 47.5945 1.42912 48.3134 1.97124 48.3134H53.0286C53.5707 48.3134 54.0635 47.7383 54.4085 46.588L53.5214 44C53.3736 44.4313 53.2257 44.5751 53.0286 44.5751Z" fill="url(#paint0_radial_5_169)"/>
<path opacity="0.3" fill-rule="evenodd" clip-rule="evenodd" d="M27.5 46.4443C13.3557 46.4443 1.922 45.7254 1.922 45.4379C1.922 45.1503 23.0152 45.1503 27.5 45.1503C31.9847 45.1503 53.0779 45.1503 53.0779 45.4379C53.0779 45.7254 41.6442 46.4443 27.5 46.4443Z" fill="url(#paint1_radial_5_169)"/>
<path fill-rule="evenodd" clip-rule="evenodd" d="M54.1128 46.4409C54.0143 46.0096 53.7679 45.2907 53.62 45.0031C53.5214 44.8593 53.4229 44.7156 53.275 44.7156C53.4722 44.428 53.62 43.9967 53.6693 43.2778C53.6693 43.7091 53.6693 44.1404 53.7679 44.5718C53.8664 45.0031 54.1128 45.722 54.2607 46.0096C54.3593 46.2971 54.5071 46.2971 54.6057 46.1534C54.5071 46.5847 54.3593 47.016 54.1621 47.3036C54.1621 47.1598 54.2114 46.8723 54.1128 46.4409Z" fill="#D6AC8A"/>
<path fill-rule="evenodd" clip-rule="evenodd" d="M49.973 44.1439C48.2481 44.1439 46.8682 44.4314 46.8682 44.719C46.8682 45.0065 48.5438 45.0065 49.973 45.0065C51.4515 45.0065 53.0778 44.8628 53.0778 44.719C53.0778 44.5752 51.6979 44.1439 49.973 44.1439Z" fill="#DBBA67"/>
<path fill-rule="evenodd" clip-rule="evenodd" d="M44.6504 44.1439C43.5662 44.1439 42.6791 44.4314 42.6791 44.5752C42.6791 44.719 43.714 44.8628 44.6504 44.8628C45.5868 44.8628 46.6217 44.719 46.6217 44.5752C46.6217 44.4314 45.7346 44.1439 44.6504 44.1439Z" fill="#DBBA67"/>
<path fill-rule="evenodd" clip-rule="evenodd" d="M1.97133 0H53.0287C54.1129 0 55 2.58804 55 5.75119V42.9902C55 46.1533 54.1129 48.7414 53.0287 48.7414H1.97133C0.887097 48.7414 0 46.1533 0 42.9902V5.75119C0 4.16961 0.197133 2.73182 0.591398 1.72536C0.93638 0.575119 1.42921 0 1.97133 0Z" fill="#AB5500"/>
<path fill-rule="evenodd" clip-rule="evenodd" d="M1.97124 3.73827H53.0286C53.2257 3.73827 53.3736 4.02583 53.5214 4.31339L54.4085 1.72536C54.0635 0.718899 53.5707 0 53.0286 0H1.97124C1.42912 0 0.936291 0.575119 0.591309 1.72536L1.47841 4.31339C1.57697 3.88205 1.7741 3.73827 1.97124 3.73827Z" fill="url(#paint2_linear_5_169)"/>
<path fill-rule="evenodd" clip-rule="evenodd" d="M53.7186 5.7513V42.9903C53.7186 43.5654 53.6201 43.9967 53.5215 44.4281L54.4086 47.0161C54.7536 46.0096 55 44.5718 55 42.9903V5.7513C55 4.16972 54.8028 2.73192 54.4086 1.72546L53.5215 4.3135C53.6201 4.60106 53.7186 5.17618 53.7186 5.7513Z" fill="url(#paint3_linear_5_169)"/>
<path fill-rule="evenodd" clip-rule="evenodd" d="M19.4176 2.58813C9.95523 2.58813 2.21777 3.01947 2.21777 3.16325C2.21777 3.30703 16.4113 3.30703 19.4176 3.30703C22.4239 3.30703 36.6174 3.30703 36.6174 3.16325C36.6174 3.01947 28.9292 2.58813 19.4176 2.58813Z" fill="white"/>
<path fill-rule="evenodd" clip-rule="evenodd" d="M54.113 2.15681C54.0144 2.58815 53.768 3.30705 53.6201 3.59461C53.5216 3.73838 53.423 3.88216 53.2751 3.88216C53.4723 4.16972 53.6201 4.60106 53.6694 5.31996C53.6694 4.88862 53.6694 4.45728 53.768 4.02594C53.8665 3.5946 54.113 2.87571 54.2608 2.58815C54.3594 2.30059 54.5072 2.30059 54.6058 2.44437C54.5072 2.01303 54.3594 1.58169 54.1622 1.29413C54.1622 1.29413 54.2115 1.72547 54.113 2.15681Z" fill="url(#paint4_radial_5_169)"/>
<path fill-rule="evenodd" clip-rule="evenodd" d="M1.97121 3.7384C1.77408 3.7384 1.57695 3.88218 1.47838 4.31352C1.33053 4.60108 1.28125 5.1762 1.28125 5.75132V42.9903C1.28125 44.1405 1.57695 45.0032 1.97121 45.0032H53.0286C53.4228 45.0032 53.7185 44.1405 53.7185 42.9903V5.75132C53.7185 4.60108 53.4228 3.7384 53.0286 3.7384H1.97121Z" fill="url(#paint5_linear_5_169)"/>
<path opacity="0.5" fill-rule="evenodd" clip-rule="evenodd" d="M1.28125 29.3312C8.32874 26.5994 46.5232 14.9532 53.7185 12.0776V5.75132C53.7185 4.60108 53.4228 3.7384 53.0286 3.7384H1.97121C1.77408 3.7384 1.57695 3.88218 1.47838 4.31352C1.33053 4.60108 1.28125 5.1762 1.28125 5.75132V29.3312Z" fill="url(#paint6_radial_5_169)" fill-opacity="0.1"/>
<defs>
<radialGradient id="paint0_radial_5_169" cx="0" cy="0" r="1" gradientUnits="userSpaceOnUse" gradientTransform="translate(6.03567 44.5931) scale(47.9909 140.01)">
<stop stop-color="#FA9E00"/>
<stop offset="1" stop-color="#784400"/>
</radialGradient>
<radialGradient id="paint1_radial_5_169" cx="0" cy="0" r="1" gradientUnits="userSpaceOnUse" gradientTransform="translate(27.5997 39.5789) scale(32.612 22.6148)">
<stop stop-color="#FFE9C2"/>
<stop offset="1" stop-color="#FFDDA3"/>
</radialGradient>
<linearGradient id="paint2_linear_5_169" x1="27.4886" y1="4.26365" x2="27.4886" y2="0" gradientUnits="userSpaceOnUse">
<stop stop-color="#FFE58F"/>
<stop offset="1" stop-color="#FFBB29"/>
</linearGradient>
<linearGradient id="paint3_linear_5_169" x1="53.5159" y1="24.2737" x2="54.9774" y2="24.2737" gradientUnits="userSpaceOnUse">
<stop stop-color="#945900"/>
<stop offset="1" stop-color="#784400"/>
</linearGradient>
<radialGradient id="paint4_radial_5_169" cx="0" cy="0" r="1" gradientUnits="userSpaceOnUse" gradientTransform="translate(53.4779 4.67583) scale(2.43144 7.09352)">
<stop stop-color="#FFD58C"/>
<stop offset="1" stop-color="#875B0E"/>
</radialGradient>
<linearGradient id="paint5_linear_5_169" x1="43.9316" y1="72.2449" x2="-14.9253" y2="52.0706" gradientUnits="userSpaceOnUse">
<stop stop-color="#FFAF30"/>
<stop offset="1" stop-color="#FFE94F"/>
</linearGradient>
<radialGradient id="paint6_radial_5_169" cx="0" cy="0" r="1" gradientUnits="userSpaceOnUse" gradientTransform="translate(5.81101 1.34692) scale(45.3083 132.183)">
<stop stop-color="#FFE9C2"/>
<stop offset="1"/>
</radialGradient>
</defs>
</svg>
