<svg width="175" height="54" viewBox="0 0 175 54" fill="none" xmlns="http://www.w3.org/2000/svg">
<path fill-rule="evenodd" clip-rule="evenodd" d="M6.57014 0.110107H167.783C171.207 0.110107 174.008 2.96363 174.008 6.45127V47.5103C174.008 50.9979 171.207 53.8515 167.783 53.8515H6.57014C3.1467 53.8515 0.345703 50.9979 0.345703 47.5103V6.45127C0.345703 4.70745 0.968147 3.12216 2.21304 2.01246C3.30231 0.744224 4.85842 0.110107 6.57014 0.110107Z" fill="#AB5500"/>
<path fill-rule="evenodd" clip-rule="evenodd" d="M6.57012 4.23186H167.783C168.406 4.23186 168.872 4.54892 169.339 4.86598L172.14 2.01246C171.051 0.902753 169.495 0.110107 167.783 0.110107H6.57012C4.8584 0.110107 3.30229 0.744224 2.21301 2.01246L5.01401 4.86598C5.32523 4.39039 5.94768 4.23186 6.57012 4.23186Z" fill="url(#paint0_linear_0_79)"/>
<path fill-rule="evenodd" clip-rule="evenodd" d="M167.783 49.5711H6.57012C5.94768 49.5711 5.48084 49.2541 5.01401 48.937L2.21301 51.7905C3.30229 52.9002 4.8584 53.6929 6.57012 53.6929H167.783C169.495 53.6929 171.051 53.0588 172.14 51.7905L169.339 48.937C168.872 49.4126 168.406 49.5711 167.783 49.5711Z" fill="url(#paint1_radial_0_79)"/>
<path fill-rule="evenodd" clip-rule="evenodd" d="M169.962 6.45139V47.5104C169.962 48.1445 169.65 48.6201 169.339 49.0957L172.14 51.9492C173.23 50.8395 174.008 49.2542 174.008 47.5104V6.45139C174.008 4.70757 173.385 3.12228 172.14 2.01257L169.339 4.8661C169.65 5.18315 169.962 5.81727 169.962 6.45139Z" fill="url(#paint2_linear_0_79)"/>
<path opacity="0.3" fill-rule="evenodd" clip-rule="evenodd" d="M87.1767 51.6321C42.5163 51.6321 6.41455 50.8394 6.41455 50.5224C6.41455 50.2053 73.0161 50.2053 87.1767 50.2053C101.337 50.2053 167.939 50.2053 167.939 50.5224C167.939 50.8394 131.837 51.6321 87.1767 51.6321Z" fill="url(#paint3_radial_0_79)"/>
<path fill-rule="evenodd" clip-rule="evenodd" d="M61.6565 2.96375C31.7792 2.96375 7.34827 3.43933 7.34827 3.59786C7.34827 3.75639 52.1642 3.75639 61.6565 3.75639C71.1488 3.75639 115.965 3.75639 115.965 3.59786C115.965 3.43933 91.6895 2.96375 61.6565 2.96375Z" fill="white"/>
<path fill-rule="evenodd" clip-rule="evenodd" d="M171.207 51.315C170.895 50.8394 170.117 50.0468 169.651 49.7297C169.339 49.5712 169.028 49.4127 168.561 49.4127C169.184 49.0956 169.651 48.62 169.806 47.8274C169.806 48.303 169.806 48.7786 170.117 49.2542C170.429 49.7297 171.207 50.5224 171.674 50.8394C171.985 51.1565 172.452 51.1565 172.763 50.998C172.452 51.4736 171.985 51.9492 171.362 52.2662C171.362 52.1077 171.518 51.7906 171.207 51.315Z" fill="#D6AC8A"/>
<path fill-rule="evenodd" clip-rule="evenodd" d="M171.207 2.48816C170.895 2.96375 170.117 3.75639 169.651 4.07345C169.339 4.23198 169.028 4.39051 168.561 4.39051C169.184 4.70757 169.651 5.18316 169.806 5.9758C169.806 5.50021 169.806 5.02463 170.117 4.54904C170.429 4.07345 171.207 3.28081 171.674 2.96375C171.985 2.64669 172.452 2.64669 172.763 2.80522C172.452 2.32963 171.985 1.85405 171.362 1.53699C171.362 1.53699 171.518 2.01257 171.207 2.48816Z" fill="url(#paint4_radial_0_79)"/>
<path fill-rule="evenodd" clip-rule="evenodd" d="M6.57016 4.23206C5.94771 4.23206 5.32527 4.39058 5.01405 4.86617C4.54721 5.18323 4.3916 5.81735 4.3916 6.45146V47.5105C4.3916 48.7787 5.32527 49.7299 6.57016 49.7299H167.783C169.028 49.7299 169.962 48.7787 169.962 47.5105V6.45146C169.962 5.18323 169.028 4.23206 167.783 4.23206H6.57016Z" fill="url(#paint5_linear_0_79)"/>
<path fill-rule="evenodd" clip-rule="evenodd" d="M158.135 49.0957C152.689 49.0957 148.332 49.4128 148.332 49.7298C148.332 50.0469 153.623 50.0469 158.135 50.0469C162.804 50.0469 167.939 49.8883 167.939 49.7298C167.939 49.5713 163.582 49.0957 158.135 49.0957Z" fill="#DBBA67"/>
<path fill-rule="evenodd" clip-rule="evenodd" d="M141.329 49.0957C137.906 49.0957 135.105 49.4128 135.105 49.5713C135.105 49.7298 138.373 49.8883 141.329 49.8883C144.286 49.8883 147.554 49.7298 147.554 49.5713C147.554 49.4128 144.753 49.0957 141.329 49.0957Z" fill="#DBBA67"/>
<path opacity="0.5" fill-rule="evenodd" clip-rule="evenodd" d="M4.3916 32.4502C26.644 29.4382 147.243 16.5973 169.962 13.4267V6.45146C169.962 5.18323 169.028 4.23206 167.783 4.23206H6.57016C5.94771 4.23206 5.32527 4.39058 5.01405 4.86617C4.54721 5.18323 4.3916 5.81735 4.3916 6.45146V32.4502Z" fill="url(#paint6_radial_0_79)" fill-opacity="0.1"/>
<defs>
<linearGradient id="paint0_linear_0_79" x1="87.141" y1="4.81113" x2="87.141" y2="0.110107" gradientUnits="userSpaceOnUse">
<stop stop-color="#FFE58F"/>
<stop offset="1" stop-color="#FFBB29"/>
</linearGradient>
<radialGradient id="paint1_radial_0_79" cx="0" cy="0" r="1" gradientUnits="userSpaceOnUse" gradientTransform="translate(19.4035 49.5909) scale(151.531 154.372)">
<stop stop-color="#FA9E00"/>
<stop offset="1" stop-color="#784400"/>
</radialGradient>
<linearGradient id="paint2_linear_0_79" x1="169.322" y1="26.8739" x2="173.936" y2="26.8739" gradientUnits="userSpaceOnUse">
<stop stop-color="#945900"/>
<stop offset="1" stop-color="#784400"/>
</linearGradient>
<radialGradient id="paint3_radial_0_79" cx="0" cy="0" r="1" gradientUnits="userSpaceOnUse" gradientTransform="translate(87.4915 44.0623) scale(102.972 24.9347)">
<stop stop-color="#FFE9C2"/>
<stop offset="1" stop-color="#FFDDA3"/>
</radialGradient>
<radialGradient id="paint4_radial_0_79" cx="0" cy="0" r="1" gradientUnits="userSpaceOnUse" gradientTransform="translate(169.201 5.26559) scale(7.67724 7.82119)">
<stop stop-color="#FFD58C"/>
<stop offset="1" stop-color="#875B0E"/>
</radialGradient>
<linearGradient id="paint5_linear_0_79" x1="139.06" y1="79.7661" x2="33.2935" y2="-24.0532" gradientUnits="userSpaceOnUse">
<stop stop-color="#FFAF30"/>
<stop offset="1" stop-color="#FFE94F"/>
</linearGradient>
<radialGradient id="paint6_radial_0_79" cx="0" cy="0" r="1" gradientUnits="userSpaceOnUse" gradientTransform="translate(18.6943 1.59525) scale(143.06 145.743)">
<stop stop-color="#FFE9C2"/>
<stop offset="1"/>
</radialGradient>
</defs>
</svg>
