<svg width="18" height="21" viewBox="0 0 18 21" fill="none" xmlns="http://www.w3.org/2000/svg">
<path d="M16.9383 7.7711C16.4075 7.48353 15.7319 7.33975 15.7319 7.33975C15.7319 7.33975 16.504 5.47056 15.3458 3.79308C14.2359 2.06768 11.5335 0.438126 11.5335 0.438126C11.5335 0.438126 11.7265 2.01975 11.4853 2.16353C11.2922 2.35524 10.7131 1.63632 10.2788 1.2529C9.8445 0.821549 8.25201 0.198486 8.25201 0.198486C8.25201 0.198486 9.69973 2.35524 9.36193 2.59488C9.07239 2.83452 8.8311 1.97182 8.10724 1.44461C7.43164 0.917405 6.03217 0.438126 6.03217 0.438126C6.03217 0.438126 6.563 1.10912 6.70778 1.5884C6.85255 2.06768 6.94906 3.12209 6.94906 3.12209C6.94906 3.12209 6.27346 2.49903 5.50134 2.21146C4.72922 1.87596 3.32976 1.5884 3.32976 1.5884C3.32976 1.5884 3.81233 2.1156 4.48794 2.64281C5.16354 3.17002 4.72922 3.79308 5.74263 5.42263C6.75603 7.05218 9.07239 7.05218 9.07239 7.05218C9.07239 7.05218 8.97587 7.10011 8.8311 7.19596C8.63807 7.24389 7.19035 7.81903 5.83914 8.9693C4.34316 10.2154 1.83378 13.139 1.83378 13.139L2.84719 12.6597C2.55764 13.0432 2.31635 13.4266 2.02681 13.8579C1.49598 14.3852 0.965147 14.9603 0.627346 15.4396C0.337802 15.8709 0.530831 15.823 0.965147 15.5354C0.627346 16.1106 0.337802 16.6378 0 17.165C2.12332 19.2738 5.01877 20.6158 8.30027 20.6158C10.4719 20.6158 12.5469 19.9927 14.2842 18.9862C14.1877 18.0756 13.9464 17.0691 13.4638 16.494C12.6434 15.4875 11.437 13.7621 11.6783 12.5639C11.8713 11.3657 13.2708 10.7906 13.2708 10.7906C13.2708 10.7906 13.0295 11.5574 12.7882 12.1325C12.5469 12.7077 11.7748 13.4745 12.8365 14.1934C13.8981 14.9124 15.2976 13.2828 15.6354 11.9888C15.9732 10.6947 15.3458 9.11308 15.3458 9.11308C15.3458 9.11308 15.4906 9.01722 15.9249 9.01722C16.3592 8.9693 18 9.11308 18 9.11308C18 9.11308 17.4692 8.05867 16.9383 7.7711Z" fill="#B56E46"/>
</svg>
