
<svg width="193" height="225" viewBox="0 0 193 225" fill="none" xmlns="http://www.w3.org/2000/svg">
<g clip-path="url(#clip0_0_96)">
<path d="M121.036 163.593C120.832 163.627 120.627 163.511 120.568 163.305L99.3975 79.8155C99.3393 79.6093 99.488 79.3898 99.7139 79.3516C99.9362 79.2924 100.168 79.426 100.204 79.6359L121.375 163.125C121.433 163.332 121.284 163.551 121.058 163.589C121.058 163.589 121.058 163.589 121.036 163.593Z" fill="#857366"/>
<path d="M121.036 163.593C120.9 163.616 120.754 163.576 120.668 163.482L49.9398 89.6254C49.7984 89.4765 49.8008 89.2169 49.9863 89.0775C50.1493 88.942 50.4274 88.9382 50.5724 89.108L121.278 162.969C121.42 163.118 121.417 163.377 121.232 163.517C121.19 163.545 121.103 163.582 121.036 163.593Z" fill="#857366"/>
<path d="M121.036 163.593C120.923 163.612 120.78 163.593 120.694 163.5L40.7079 95.204C40.5439 95.0589 40.5273 94.8241 40.6867 94.6676C40.846 94.511 41.0981 94.49 41.2621 94.6351L121.249 162.931C121.413 163.076 121.429 163.31 121.27 163.467C121.213 163.541 121.126 163.578 121.036 163.593Z" fill="#857366"/>
<path d="M121.036 163.593C120.923 163.612 120.825 163.585 120.724 163.538L11.5016 92.4746C11.3185 92.3544 11.2758 92.1024 11.409 91.9287C11.5422 91.755 11.8133 91.7091 11.9963 91.8294L121.219 162.893C121.402 163.013 121.445 163.265 121.312 163.438C121.232 163.517 121.149 163.574 121.036 163.593Z" fill="#857366"/>
<path d="M138.061 206.593L134.751 207.627C134.729 207.631 134.706 207.635 134.683 207.639C130.819 208.832 126.158 207.655 121.609 203.845C112.513 196.246 107.294 180.95 109.987 169.695C111.349 164.022 114.439 160.453 118.332 159.298L121.443 158.319L121.629 158.87C124.688 158.958 128.058 160.332 131.339 163.104C140.461 170.72 145.657 186.019 142.968 197.296C142.017 201.28 140.215 204.22 137.849 206.024L138.061 206.593Z" fill="url(#paint0_linear_0_96)"/>
<path d="M138.211 206.653L134.792 207.728C134.769 207.732 134.746 207.736 134.724 207.74C130.66 208.989 125.97 207.643 121.555 203.94C117.14 200.237 113.494 194.633 111.282 188.16C109.069 181.687 108.582 175.116 109.886 169.647C110.551 166.856 111.645 164.533 113.128 162.727C114.554 160.995 116.26 159.821 118.224 159.208L118.311 159.172L121.531 158.152L121.724 158.746C124.903 158.857 128.246 160.343 131.438 163C135.853 166.703 139.499 172.308 141.712 178.781C143.924 185.254 144.411 191.824 143.107 197.293C142.18 201.144 140.437 204.16 138.014 206.039L138.211 206.653ZM118.237 159.422C114.267 160.677 111.376 164.319 110.103 169.697C107.426 180.906 112.645 196.202 121.714 203.784C126.074 207.431 130.692 208.767 134.669 207.555C134.692 207.551 134.714 207.547 134.737 207.543L137.934 206.527L137.748 205.976L137.808 205.922C140.213 204.068 141.959 201.073 142.89 197.244C145.567 186.034 140.348 170.738 131.279 163.157C128.113 160.517 124.774 159.051 121.621 158.958L121.55 158.948L121.367 158.418L118.479 159.338L118.369 159.378C118.324 159.386 118.282 159.414 118.237 159.422Z" fill="#664320"/>
<path d="M146.188 196.276C143.495 207.531 133.935 210.487 124.836 202.867C115.714 195.251 110.518 179.952 113.207 168.675C115.896 157.399 125.46 154.464 134.559 162.084C143.659 169.704 148.877 185 146.188 196.276Z" fill="url(#paint1_radial_0_96)"/>
<path d="M137.985 206.692C135.998 207.308 133.863 207.324 131.621 206.709C129.304 206.064 126.997 204.791 124.752 202.925C120.337 199.222 116.695 193.638 114.482 187.165C112.269 180.692 111.783 174.122 113.09 168.673C114.397 163.225 117.326 159.533 121.361 158.246C123.347 157.629 125.483 157.614 127.724 158.228C130.041 158.874 132.348 160.147 134.594 162.013C139.009 165.716 142.651 171.3 144.864 177.773C147.076 184.246 147.563 190.816 146.256 196.265C144.975 201.73 142.023 205.426 137.985 206.692ZM121.431 158.386C117.461 159.64 114.551 163.307 113.255 168.689C110.578 179.898 115.8 195.215 124.87 202.797C129.282 206.479 133.922 207.811 137.938 206.549C141.907 205.294 144.818 201.627 146.113 196.245C148.79 185.036 143.568 169.719 134.498 162.137C130.087 158.455 125.446 157.123 121.431 158.386Z" fill="#664320"/>
<path d="M125.036 201.991C116.317 194.696 111.325 180.053 113.889 169.273C114.95 164.838 117.121 161.75 119.918 160.154C123.865 158.212 128.919 159.107 133.846 163.22C142.564 170.515 147.556 185.159 144.992 195.938C143.931 200.373 141.76 203.462 138.963 205.058C135.017 207 129.962 206.105 125.036 201.991Z" fill="url(#paint2_linear_0_96)"/>
<path d="M137.626 205.672C133.766 206.887 129.249 205.599 124.975 202.044C120.75 198.504 117.263 193.153 115.146 186.967C113.028 180.78 112.565 174.486 113.817 169.263C114.851 164.941 116.941 161.78 119.885 160.094L119.907 160.09C124.046 158.051 129.14 159.177 133.906 163.166C138.131 166.707 141.618 172.058 143.735 178.244C145.853 184.431 146.316 190.725 145.063 195.948C144.03 200.27 141.94 203.431 139.019 205.113L138.996 205.117C138.547 205.344 138.09 205.529 137.626 205.672ZM119.955 160.233C117.075 161.887 115.004 165.023 113.986 169.299C111.415 180.037 116.407 194.68 125.1 201.959C129.321 205.478 133.79 206.753 137.582 205.55C138.046 205.407 138.48 205.226 138.933 205.019C141.813 203.366 143.884 200.23 144.902 195.953C147.473 185.215 142.481 170.572 133.788 163.294C129.075 159.339 124.026 158.206 119.955 160.233Z" fill="#664320"/>
<path d="M127.36 206.933C127.353 206.891 127.395 206.863 127.437 206.834L129.291 206.261C129.359 206.249 129.408 206.263 129.411 206.284C129.415 206.305 129.377 206.355 129.335 206.383L127.481 206.956C127.416 206.989 127.368 206.975 127.36 206.933Z" fill="#D7A223"/>
<path d="M126.08 206.372C126.073 206.33 126.115 206.302 126.156 206.273L128.011 205.7C128.079 205.688 128.128 205.702 128.131 205.723C128.138 205.765 128.097 205.794 128.055 205.822L126.2 206.395C126.133 206.407 126.084 206.393 126.08 206.372Z" fill="#D7A223"/>
<path d="M128.927 207.403C128.92 207.361 128.962 207.332 129.003 207.304L130.704 206.778C130.771 206.767 130.82 206.78 130.824 206.801C130.831 206.843 130.789 206.872 130.748 206.9L129.047 207.426C128.983 207.458 128.934 207.445 128.927 207.403Z" fill="#D7A223"/>
<path d="M124.91 205.771C124.902 205.729 124.944 205.7 124.986 205.672L126.84 205.099C126.908 205.087 126.957 205.101 126.961 205.122C126.968 205.164 126.926 205.192 126.884 205.221L125.03 205.794C124.962 205.806 124.913 205.792 124.91 205.771Z" fill="#D7A223"/>
<path d="M131.998 207.834C131.991 207.792 132.032 207.763 132.074 207.735L133.465 207.305C133.533 207.293 133.581 207.307 133.585 207.328C133.592 207.37 133.551 207.398 133.509 207.427L132.118 207.857C132.076 207.886 132.005 207.876 131.998 207.834Z" fill="#D7A223"/>
<path d="M130.502 207.785C130.495 207.743 130.537 207.714 130.579 207.685L132.279 207.16C132.347 207.148 132.395 207.162 132.399 207.183C132.406 207.225 132.364 207.253 132.323 207.282L130.623 207.808C130.555 207.819 130.506 207.806 130.502 207.785Z" fill="#D7A223"/>
<path d="M123.957 205.09C123.95 205.048 123.992 205.019 124.034 204.99L125.888 204.417C125.956 204.406 126.005 204.419 126.008 204.44C126.016 204.482 125.974 204.511 125.932 204.539L124.077 205.113C124.013 205.145 123.965 205.132 123.957 205.09Z" fill="#D7A223"/>
<path d="M122.983 204.412C122.976 204.37 123.017 204.341 123.059 204.313L124.914 203.74C124.981 203.728 125.03 203.742 125.034 203.763C125.037 203.784 124.999 203.833 124.958 203.862L123.103 204.435C123.061 204.464 123.013 204.45 122.983 204.412Z" fill="#D7A223"/>
<path d="M122.144 203.712C122.137 203.67 122.178 203.641 122.22 203.612L124.075 203.039C124.142 203.028 124.191 203.041 124.195 203.062C124.198 203.083 124.16 203.133 124.119 203.161L122.264 203.735C122.2 203.767 122.151 203.754 122.144 203.712Z" fill="#D7A223"/>
<path d="M121.282 203.015C121.275 202.973 121.317 202.944 121.358 202.915L123.213 202.342C123.281 202.331 123.33 202.344 123.333 202.365C123.34 202.407 123.299 202.436 123.257 202.465L121.402 203.038C121.361 203.066 121.312 203.053 121.282 203.015Z" fill="#D7A223"/>
<path d="M120.552 202.274C120.545 202.232 120.587 202.203 120.628 202.175L122.483 201.602C122.551 201.59 122.6 201.604 122.603 201.625C122.61 201.667 122.569 201.695 122.527 201.724L120.672 202.297C120.608 202.33 120.56 202.316 120.552 202.274Z" fill="#D7A223"/>
<path d="M119.76 201.436C119.753 201.394 119.794 201.366 119.836 201.337L121.691 200.764C121.758 200.752 121.807 200.766 121.811 200.787C121.818 200.829 121.776 200.857 121.735 200.886L119.88 201.459C119.838 201.488 119.789 201.475 119.76 201.436Z" fill="#D7A223"/>
<path d="M118.99 200.595C118.983 200.552 119.024 200.524 119.066 200.495L120.921 199.922C120.988 199.911 121.037 199.924 121.041 199.945C121.048 199.987 121.006 200.016 120.965 200.044L119.11 200.617C119.068 200.646 118.997 200.637 118.99 200.595Z" fill="#D7A223"/>
<path d="M118.183 199.673C118.176 199.631 118.217 199.602 118.259 199.573L120.114 199C120.181 198.989 120.23 199.002 120.234 199.023C120.241 199.065 120.199 199.094 120.158 199.122L118.303 199.696C118.258 199.703 118.186 199.694 118.183 199.673Z" fill="#D7A223"/>
<path d="M117.482 198.69C117.474 198.647 117.516 198.619 117.558 198.59L119.412 198.017C119.48 198.006 119.529 198.019 119.533 198.04C119.54 198.082 119.498 198.111 119.456 198.139L117.602 198.712C117.537 198.745 117.489 198.732 117.482 198.69Z" fill="#D7A223"/>
<path d="M116.784 197.728C116.777 197.686 116.819 197.657 116.86 197.628L118.715 197.055C118.783 197.044 118.831 197.057 118.835 197.078C118.842 197.12 118.801 197.149 118.759 197.177L116.904 197.751C116.836 197.762 116.788 197.749 116.784 197.728Z" fill="#D7A223"/>
<path d="M116.198 196.876C116.191 196.834 116.233 196.805 116.274 196.777L118.129 196.204C118.197 196.192 118.246 196.206 118.249 196.227C118.253 196.248 118.215 196.297 118.173 196.326L116.318 196.899C116.273 196.907 116.202 196.897 116.198 196.876Z" fill="#D7A223"/>
<path d="M115.497 195.893C115.49 195.851 115.532 195.822 115.573 195.794L117.428 195.221C117.496 195.209 117.545 195.223 117.548 195.244C117.552 195.265 117.514 195.314 117.472 195.343L115.617 195.916C115.576 195.945 115.504 195.935 115.497 195.893Z" fill="#D7A223"/>
<path d="M114.909 194.891C114.902 194.849 114.944 194.82 114.985 194.792L116.84 194.218C116.908 194.207 116.956 194.22 116.96 194.241C116.967 194.283 116.926 194.312 116.884 194.341L115.029 194.914C114.965 194.946 114.916 194.933 114.909 194.891Z" fill="#D7A223"/>
<path d="M114.366 193.881C114.359 193.839 114.401 193.81 114.442 193.782L116.229 193.22C116.297 193.209 116.346 193.222 116.349 193.243C116.356 193.285 116.315 193.314 116.273 193.342L114.486 193.904C114.441 193.912 114.37 193.902 114.366 193.881Z" fill="#D7A223"/>
<path d="M113.898 192.902C113.891 192.86 113.932 192.831 113.974 192.803L115.829 192.229C115.897 192.218 115.945 192.231 115.949 192.252C115.956 192.294 115.914 192.323 115.873 192.352L114.018 192.925C113.954 192.957 113.905 192.944 113.898 192.902Z" fill="#D7A223"/>
<path d="M113.397 191.863C113.389 191.821 113.431 191.793 113.473 191.764L115.328 191.191C115.395 191.18 115.444 191.193 115.448 191.214C115.455 191.256 115.413 191.285 115.371 191.313L113.517 191.886C113.475 191.915 113.404 191.906 113.397 191.863Z" fill="#D7A223"/>
<path d="M112.918 190.821C112.911 190.779 112.952 190.751 112.994 190.722L114.849 190.149C114.917 190.137 114.965 190.151 114.969 190.172C114.972 190.193 114.934 190.243 114.893 190.271L113.038 190.844C112.974 190.877 112.925 190.863 112.918 190.821Z" fill="#D7A223"/>
<path d="M112.548 189.739C112.541 189.697 112.583 189.668 112.625 189.639L114.479 189.066C114.547 189.055 114.596 189.068 114.599 189.089C114.603 189.11 114.565 189.16 114.523 189.189L112.669 189.762C112.604 189.794 112.556 189.781 112.548 189.739Z" fill="#D7A223"/>
<path d="M112.126 188.752C112.119 188.71 112.16 188.681 112.202 188.653L114.057 188.08C114.124 188.068 114.173 188.081 114.177 188.102C114.184 188.145 114.142 188.173 114.1 188.202L112.246 188.775C112.201 188.783 112.129 188.773 112.126 188.752Z" fill="#D7A223"/>
<path d="M111.756 187.67C111.749 187.628 111.791 187.599 111.832 187.57L113.687 186.997C113.755 186.986 113.804 186.999 113.807 187.02C113.811 187.041 113.773 187.091 113.731 187.12L111.876 187.693C111.812 187.725 111.763 187.712 111.756 187.67Z" fill="#D7A223"/>
<path d="M111.477 186.572C111.47 186.53 111.512 186.501 111.553 186.473L113.408 185.899C113.476 185.888 113.525 185.901 113.528 185.922C113.535 185.964 113.494 185.993 113.452 186.022L111.597 186.595C111.529 186.606 111.481 186.593 111.477 186.572Z" fill="#D7A223"/>
<path d="M112.841 164.05C112.834 164.008 112.875 163.98 112.917 163.951L114.772 163.378C114.84 163.366 114.888 163.38 114.892 163.401C114.899 163.443 114.857 163.472 114.816 163.5L112.961 164.073C112.919 164.102 112.871 164.089 112.841 164.05Z" fill="#D7A223"/>
<path d="M112.161 165.245C112.153 165.203 112.195 165.175 112.237 165.146L114.091 164.573C114.159 164.561 114.208 164.575 114.212 164.596C114.219 164.638 114.177 164.667 114.135 164.695L112.281 165.268C112.235 165.276 112.187 165.263 112.161 165.245Z" fill="#D7A223"/>
<path d="M113.812 162.785C113.804 162.743 113.846 162.714 113.888 162.685L115.588 162.16C115.656 162.148 115.704 162.162 115.708 162.183C115.715 162.225 115.673 162.253 115.632 162.282L113.932 162.808C113.886 162.815 113.838 162.802 113.812 162.785Z" fill="#D7A223"/>
<path d="M111.586 166.379C111.579 166.337 111.621 166.309 111.662 166.28L113.517 165.707C113.585 165.695 113.633 165.709 113.637 165.73C113.644 165.772 113.603 165.801 113.561 165.829L111.706 166.402C111.665 166.431 111.593 166.421 111.586 166.379Z" fill="#D7A223"/>
<path d="M116.057 160.677C116.049 160.635 116.091 160.606 116.133 160.578L117.524 160.148C117.592 160.136 117.64 160.15 117.644 160.171C117.651 160.213 117.609 160.241 117.568 160.27L116.177 160.7C116.112 160.732 116.064 160.719 116.057 160.677Z" fill="#D7A223"/>
<path d="M114.864 161.591C114.857 161.549 114.898 161.521 114.94 161.492L116.64 160.967C116.708 160.955 116.757 160.969 116.76 160.99C116.768 161.032 116.726 161.06 116.684 161.089L114.984 161.614C114.939 161.622 114.89 161.609 114.864 161.591Z" fill="#D7A223"/>
<path d="M111.215 167.479C111.208 167.437 111.249 167.408 111.291 167.379L113.146 166.806C113.213 166.795 113.262 166.808 113.266 166.829C113.273 166.871 113.231 166.9 113.19 166.929L111.335 167.502C111.293 167.53 111.244 167.517 111.215 167.479Z" fill="#D7A223"/>
<path d="M110.862 168.554C110.855 168.512 110.897 168.483 110.939 168.454L112.793 167.881C112.861 167.87 112.91 167.883 112.913 167.904C112.921 167.946 112.879 167.975 112.837 168.004L110.983 168.577C110.941 168.605 110.87 168.596 110.862 168.554Z" fill="#D7A223"/>
<path d="M110.6 169.613C110.593 169.571 110.635 169.542 110.677 169.514L112.531 168.941C112.599 168.929 112.648 168.943 112.651 168.964C112.655 168.985 112.617 169.034 112.575 169.063L110.721 169.636C110.679 169.665 110.608 169.655 110.6 169.613Z" fill="#D7A223"/>
<path d="M110.361 170.669C110.354 170.627 110.396 170.598 110.437 170.57L112.292 169.996C112.36 169.985 112.409 169.998 112.412 170.019C112.419 170.061 112.378 170.09 112.336 170.119L110.481 170.692C110.414 170.703 110.365 170.69 110.361 170.669Z" fill="#D7A223"/>
<path d="M110.209 171.688C110.202 171.646 110.243 171.618 110.285 171.589L112.14 171.016C112.207 171.004 112.256 171.018 112.26 171.039C112.267 171.081 112.225 171.109 112.184 171.138L110.329 171.711C110.261 171.723 110.212 171.709 110.209 171.688Z" fill="#D7A223"/>
<path d="M110.097 172.809C110.089 172.767 110.131 172.738 110.173 172.709L112.027 172.136C112.095 172.125 112.144 172.138 112.148 172.159C112.155 172.201 112.113 172.23 112.071 172.258L110.217 172.832C110.149 172.843 110.1 172.83 110.097 172.809Z" fill="#D7A223"/>
<path d="M109.958 173.912C109.951 173.87 109.993 173.841 110.034 173.813L111.889 173.24C111.957 173.228 112.006 173.242 112.009 173.263C112.013 173.284 111.975 173.333 111.933 173.362L110.078 173.935C110.037 173.964 109.988 173.95 109.958 173.912Z" fill="#D7A223"/>
<path d="M109.887 175.134C109.879 175.092 109.921 175.063 109.963 175.034L111.818 174.461C111.885 174.45 111.934 174.463 111.938 174.484C111.945 174.526 111.903 174.555 111.861 174.584L110.007 175.157C109.965 175.185 109.894 175.176 109.887 175.134Z" fill="#D7A223"/>
<path d="M109.902 176.319C109.895 176.277 109.936 176.249 109.978 176.22L111.833 175.647C111.9 175.635 111.949 175.649 111.953 175.67C111.96 175.712 111.918 175.741 111.877 175.769L110.022 176.342C109.98 176.371 109.931 176.358 109.902 176.319Z" fill="#D7A223"/>
<path d="M109.939 177.501C109.932 177.459 109.974 177.43 110.015 177.402L111.87 176.828C111.938 176.817 111.987 176.83 111.99 176.851C111.997 176.893 111.956 176.922 111.914 176.951L110.059 177.524C109.995 177.556 109.946 177.543 109.939 177.501Z" fill="#D7A223"/>
<path d="M109.994 178.507C109.987 178.465 110.028 178.436 110.07 178.408L111.925 177.834C111.992 177.823 112.041 177.836 112.045 177.857C112.048 177.878 112.01 177.928 111.969 177.957L110.114 178.53C110.05 178.562 110.001 178.549 109.994 178.507Z" fill="#D7A223"/>
<path d="M110.009 179.692C110.002 179.65 110.043 179.622 110.085 179.593L111.94 179.02C112.007 179.008 112.056 179.022 112.06 179.043C112.067 179.085 112.025 179.113 111.984 179.142L110.129 179.715C110.087 179.744 110.038 179.731 110.009 179.692Z" fill="#D7A223"/>
<path d="M110.159 180.855C110.152 180.813 110.194 180.784 110.235 180.756L112.09 180.182C112.158 180.171 112.207 180.184 112.21 180.205C112.217 180.247 112.176 180.276 112.134 180.305L110.279 180.878C110.212 180.889 110.163 180.876 110.159 180.855Z" fill="#D7A223"/>
<path d="M110.284 182C110.277 181.958 110.318 181.929 110.36 181.901L112.215 181.328C112.282 181.316 112.331 181.33 112.335 181.351C112.342 181.393 112.3 181.421 112.259 181.45L110.404 182.023C110.336 182.035 110.287 182.021 110.284 182Z" fill="#D7A223"/>
<path d="M110.592 183.136C110.585 183.094 110.627 183.065 110.669 183.037L112.523 182.464C112.591 182.452 112.64 182.465 112.643 182.486C112.651 182.529 112.609 182.557 112.567 182.586L110.713 183.159C110.648 183.192 110.6 183.178 110.592 183.136Z" fill="#D7A223"/>
<path d="M110.826 184.241C110.819 184.199 110.861 184.171 110.902 184.142L112.757 183.569C112.825 183.557 112.874 183.571 112.877 183.592C112.884 183.634 112.843 183.663 112.801 183.691L110.946 184.264C110.905 184.293 110.833 184.283 110.826 184.241Z" fill="#D7A223"/>
<path d="M111.064 185.368C111.057 185.326 111.098 185.297 111.14 185.268L112.995 184.695C113.063 184.684 113.111 184.697 113.115 184.718C113.118 184.739 113.08 184.789 113.039 184.817L111.184 185.391C111.142 185.419 111.071 185.41 111.064 185.368Z" fill="#D7A223"/>
<path d="M127.357 206.913C127.35 206.87 127.391 206.842 127.433 206.813L129.288 206.24C129.355 206.229 129.404 206.242 129.408 206.263C129.415 206.305 129.373 206.334 129.332 206.362L127.477 206.935C127.432 206.943 127.383 206.93 127.357 206.913Z" fill="#664320"/>
<path d="M126.073 206.33C126.066 206.288 126.108 206.26 126.149 206.231L128.004 205.658C128.072 205.646 128.121 205.66 128.124 205.681C128.131 205.723 128.09 205.751 128.048 205.78L126.193 206.353C126.152 206.382 126.103 206.369 126.073 206.33Z" fill="#664320"/>
<path d="M128.924 207.382C128.916 207.34 128.958 207.311 129 207.283L130.7 206.757C130.768 206.746 130.816 206.759 130.82 206.78C130.827 206.822 130.785 206.851 130.744 206.88L129.044 207.405C129.002 207.434 128.931 207.424 128.924 207.382Z" fill="#664320"/>
<path d="M124.902 205.729C124.895 205.687 124.937 205.659 124.978 205.63L126.833 205.057C126.901 205.045 126.95 205.059 126.953 205.08C126.96 205.122 126.919 205.15 126.877 205.179L125.022 205.752C124.981 205.781 124.932 205.767 124.902 205.729Z" fill="#664320"/>
<path d="M132.017 207.809C132.01 207.767 132.051 207.739 132.093 207.71L133.484 207.28C133.552 207.269 133.6 207.282 133.604 207.303C133.611 207.345 133.57 207.374 133.528 207.402L132.137 207.832C132.069 207.844 132.02 207.83 132.017 207.809Z" fill="#664320"/>
<path d="M130.495 207.743C130.488 207.701 130.53 207.672 130.571 207.643L132.271 207.118C132.339 207.107 132.388 207.12 132.392 207.141C132.399 207.183 132.357 207.212 132.315 207.24L130.615 207.766C130.574 207.794 130.525 207.781 130.495 207.743Z" fill="#664320"/>
<path d="M133.321 207.826C133.314 207.784 133.356 207.756 133.397 207.727L135.097 207.202C135.165 207.19 135.214 207.204 135.217 207.225C135.225 207.267 135.183 207.295 135.141 207.324L133.441 207.849C133.396 207.857 133.325 207.847 133.321 207.826Z" fill="#664320"/>
<path d="M123.95 205.048C123.943 205.006 123.985 204.977 124.026 204.948L125.881 204.375C125.949 204.364 125.998 204.377 126.001 204.398C126.008 204.44 125.967 204.469 125.925 204.498L124.07 205.071C124.029 205.099 123.957 205.09 123.95 205.048Z" fill="#664320"/>
<path d="M123.002 204.387C122.995 204.345 123.036 204.317 123.078 204.288L124.933 203.715C125.001 203.703 125.049 203.717 125.053 203.738C125.06 203.78 125.018 203.808 124.977 203.837L123.122 204.41C123.058 204.443 123.009 204.429 123.002 204.387Z" fill="#664320"/>
<path d="M122.14 203.691C122.133 203.649 122.175 203.62 122.216 203.591L124.071 203.018C124.139 203.007 124.187 203.02 124.191 203.041C124.198 203.083 124.157 203.112 124.115 203.14L122.26 203.714C122.215 203.721 122.166 203.708 122.14 203.691Z" fill="#664320"/>
<path d="M121.298 202.969C121.29 202.927 121.332 202.898 121.374 202.87L123.228 202.297C123.296 202.285 123.345 202.298 123.348 202.32C123.356 202.362 123.314 202.39 123.272 202.419L121.418 202.992C121.376 203.021 121.305 203.011 121.298 202.969Z" fill="#664320"/>
<path d="M120.545 202.232C120.538 202.19 120.58 202.162 120.621 202.133L122.476 201.56C122.544 201.548 122.592 201.562 122.596 201.583C122.603 201.625 122.562 201.653 122.52 201.682L120.665 202.255C120.624 202.284 120.575 202.271 120.545 202.232Z" fill="#664320"/>
<path d="M119.779 201.412C119.772 201.37 119.813 201.341 119.855 201.312L121.71 200.739C121.777 200.728 121.826 200.741 121.83 200.762C121.837 200.804 121.795 200.833 121.754 200.861L119.899 201.435C119.854 201.442 119.782 201.433 119.779 201.412Z" fill="#664320"/>
<path d="M119.008 200.57C119.001 200.528 119.043 200.499 119.085 200.47L120.939 199.897C121.007 199.886 121.056 199.899 121.059 199.92C121.067 199.962 121.025 199.991 120.983 200.02L119.129 200.593C119.061 200.604 119.012 200.591 119.008 200.57Z" fill="#664320"/>
<path d="M118.198 199.627C118.191 199.585 118.232 199.556 118.274 199.527L120.129 198.954C120.197 198.943 120.245 198.956 120.249 198.977C120.256 199.019 120.214 199.048 120.173 199.077L118.318 199.65C118.254 199.682 118.205 199.669 118.198 199.627Z" fill="#664320"/>
<path d="M117.478 198.669C117.471 198.626 117.512 198.598 117.554 198.569L119.409 197.996C119.477 197.985 119.525 197.998 119.529 198.019C119.532 198.04 119.494 198.09 119.453 198.118L117.598 198.691C117.553 198.699 117.504 198.686 117.478 198.669Z" fill="#664320"/>
<path d="M116.777 197.686C116.77 197.644 116.811 197.615 116.853 197.586L118.708 197.013C118.775 197.002 118.824 197.015 118.828 197.036C118.835 197.078 118.793 197.107 118.752 197.135L116.897 197.709C116.855 197.737 116.806 197.724 116.777 197.686Z" fill="#664320"/>
<path d="M116.214 196.83C116.206 196.788 116.248 196.76 116.29 196.731L118.144 196.158C118.212 196.146 118.261 196.16 118.264 196.181C118.272 196.223 118.23 196.251 118.188 196.28L116.334 196.853C116.269 196.886 116.221 196.872 116.214 196.83Z" fill="#664320"/>
<path d="M115.516 195.868C115.509 195.826 115.551 195.798 115.592 195.769L117.447 195.196C117.515 195.184 117.563 195.198 117.567 195.219C117.574 195.261 117.532 195.29 117.491 195.318L115.636 195.891C115.572 195.924 115.523 195.91 115.516 195.868Z" fill="#664320"/>
<path d="M114.905 194.87C114.898 194.828 114.94 194.799 114.981 194.771L116.836 194.197C116.904 194.186 116.953 194.199 116.956 194.22C116.963 194.262 116.922 194.291 116.88 194.32L115.025 194.893C114.98 194.901 114.909 194.891 114.905 194.87Z" fill="#664320"/>
<path d="M114.381 193.835C114.374 193.793 114.416 193.765 114.457 193.736L116.244 193.174C116.312 193.163 116.361 193.176 116.364 193.197C116.372 193.239 116.33 193.268 116.288 193.297L114.501 193.858C114.437 193.891 114.388 193.877 114.381 193.835Z" fill="#664320"/>
<path d="M113.891 192.86C113.884 192.818 113.925 192.789 113.967 192.761L115.822 192.188C115.889 192.176 115.938 192.189 115.942 192.21C115.949 192.253 115.907 192.281 115.866 192.31L114.011 192.883C113.969 192.912 113.92 192.898 113.891 192.86Z" fill="#664320"/>
<path d="M113.415 191.839C113.408 191.797 113.45 191.768 113.492 191.739L115.346 191.166C115.414 191.155 115.463 191.168 115.466 191.189C115.474 191.231 115.432 191.26 115.39 191.289L113.536 191.862C113.468 191.873 113.419 191.86 113.415 191.839Z" fill="#664320"/>
<path d="M112.914 190.8C112.907 190.758 112.949 190.73 112.99 190.701L114.845 190.128C114.913 190.116 114.962 190.13 114.965 190.151C114.972 190.193 114.931 190.222 114.889 190.25L113.034 190.823C112.989 190.831 112.94 190.818 112.914 190.8Z" fill="#664320"/>
<path d="M112.541 189.697C112.534 189.655 112.576 189.626 112.617 189.598L114.472 189.024C114.54 189.013 114.589 189.026 114.592 189.047C114.599 189.089 114.558 189.118 114.516 189.147L112.661 189.72C112.62 189.749 112.571 189.735 112.541 189.697Z" fill="#664320"/>
<path d="M112.141 188.706C112.134 188.664 112.175 188.636 112.217 188.607L114.072 188.034C114.139 188.022 114.188 188.036 114.192 188.057C114.199 188.099 114.157 188.127 114.116 188.156L112.261 188.729C112.197 188.762 112.148 188.748 112.141 188.706Z" fill="#664320"/>
<path d="M111.752 187.649C111.745 187.607 111.787 187.578 111.828 187.549L113.683 186.976C113.751 186.965 113.8 186.978 113.803 186.999C113.81 187.041 113.769 187.07 113.727 187.099L111.872 187.672C111.827 187.679 111.756 187.67 111.752 187.649Z" fill="#664320"/>
<path d="M111.47 186.53C111.463 186.488 111.504 186.459 111.546 186.431L113.401 185.858C113.469 185.846 113.517 185.86 113.521 185.881C113.528 185.923 113.486 185.951 113.445 185.98L111.59 186.553C111.548 186.582 111.5 186.568 111.47 186.53Z" fill="#664320"/>
<path d="M112.86 164.026C112.853 163.984 112.894 163.955 112.936 163.926L114.791 163.353C114.858 163.342 114.907 163.355 114.911 163.376C114.914 163.397 114.876 163.447 114.835 163.475L112.98 164.049C112.935 164.056 112.863 164.047 112.86 164.026Z" fill="#664320"/>
<path d="M112.176 165.2C112.169 165.158 112.21 165.129 112.252 165.1L114.107 164.527C114.175 164.516 114.223 164.529 114.227 164.55C114.234 164.592 114.192 164.621 114.151 164.649L112.296 165.223C112.232 165.255 112.183 165.242 112.176 165.2Z" fill="#664320"/>
<path d="M113.827 162.739C113.82 162.697 113.861 162.668 113.903 162.64L115.603 162.114C115.671 162.103 115.719 162.116 115.723 162.137C115.73 162.179 115.689 162.208 115.647 162.237L113.947 162.762C113.905 162.791 113.834 162.781 113.827 162.739Z" fill="#664320"/>
<path d="M111.605 166.355C111.598 166.313 111.639 166.284 111.681 166.255L113.536 165.682C113.604 165.671 113.652 165.684 113.656 165.705C113.663 165.747 113.621 165.776 113.58 165.804L111.725 166.378C111.661 166.41 111.612 166.397 111.605 166.355Z" fill="#664320"/>
<path d="M116.05 160.635C116.042 160.593 116.084 160.564 116.126 160.536L117.517 160.106C117.584 160.094 117.633 160.108 117.637 160.129C117.644 160.171 117.602 160.199 117.561 160.228L116.17 160.658C116.128 160.687 116.057 160.677 116.05 160.635Z" fill="#664320"/>
<path d="M114.879 161.546C114.872 161.504 114.914 161.475 114.955 161.446L116.656 160.921C116.723 160.91 116.772 160.923 116.776 160.944C116.779 160.965 116.741 161.015 116.7 161.043L114.999 161.569C114.958 161.597 114.887 161.588 114.879 161.546Z" fill="#664320"/>
<path d="M117.109 159.894C117.102 159.852 117.143 159.824 117.185 159.795L118.885 159.27C118.953 159.258 119.002 159.272 119.005 159.293C119.012 159.335 118.971 159.363 118.929 159.392L117.229 159.917C117.184 159.925 117.112 159.915 117.109 159.894Z" fill="#664320"/>
<path d="M111.23 167.433C111.223 167.391 111.265 167.362 111.306 167.334L113.161 166.761C113.229 166.749 113.278 166.763 113.281 166.784C113.288 166.826 113.247 166.854 113.205 166.883L111.35 167.456C111.309 167.485 111.237 167.475 111.23 167.433Z" fill="#664320"/>
<path d="M110.881 168.529C110.874 168.487 110.916 168.458 110.957 168.43L112.812 167.856C112.88 167.845 112.929 167.858 112.932 167.879C112.939 167.921 112.898 167.95 112.856 167.979L111.001 168.552C110.934 168.563 110.885 168.55 110.881 168.529Z" fill="#664320"/>
<path d="M110.619 169.588C110.612 169.546 110.654 169.518 110.695 169.489L112.55 168.916C112.618 168.904 112.667 168.918 112.67 168.939C112.677 168.981 112.636 169.009 112.594 169.038L110.739 169.611C110.672 169.623 110.623 169.609 110.619 169.588Z" fill="#664320"/>
<path d="M110.354 170.627C110.347 170.585 110.388 170.556 110.43 170.527L112.285 169.954C112.353 169.943 112.401 169.956 112.405 169.977C112.408 169.998 112.37 170.048 112.329 170.077L110.474 170.65C110.432 170.678 110.361 170.669 110.354 170.627Z" fill="#664320"/>
<path d="M110.202 171.646C110.194 171.604 110.236 171.575 110.278 171.547L112.132 170.974C112.2 170.962 112.249 170.976 112.253 170.997C112.256 171.018 112.218 171.067 112.176 171.096L110.322 171.669C110.28 171.698 110.231 171.684 110.202 171.646Z" fill="#664320"/>
<path d="M110.089 172.767C110.082 172.725 110.124 172.696 110.165 172.667L112.02 172.094C112.088 172.083 112.137 172.096 112.14 172.117C112.147 172.159 112.106 172.188 112.064 172.217L110.209 172.79C110.168 172.818 110.096 172.809 110.089 172.767Z" fill="#664320"/>
<path d="M109.977 173.887C109.97 173.845 110.012 173.817 110.053 173.788L111.908 173.215C111.976 173.203 112.025 173.217 112.028 173.238C112.035 173.28 111.994 173.309 111.952 173.337L110.097 173.91C110.052 173.918 109.981 173.908 109.977 173.887Z" fill="#664320"/>
<path d="M109.906 175.109C109.899 175.067 109.94 175.038 109.982 175.01L111.837 174.437C111.904 174.425 111.953 174.439 111.957 174.46C111.964 174.502 111.922 174.53 111.881 174.559L110.026 175.132C109.958 175.144 109.909 175.13 109.906 175.109Z" fill="#664320"/>
<path d="M109.921 176.295C109.913 176.253 109.955 176.224 109.997 176.195L111.851 175.622C111.919 175.611 111.968 175.624 111.972 175.645C111.979 175.687 111.937 175.716 111.895 175.744L110.041 176.318C109.995 176.325 109.924 176.316 109.921 176.295Z" fill="#664320"/>
<path d="M109.932 177.459C109.925 177.417 109.967 177.388 110.008 177.36L111.863 176.786C111.931 176.775 111.979 176.788 111.983 176.809C111.99 176.851 111.949 176.88 111.907 176.909L110.052 177.482C110.01 177.511 109.962 177.497 109.932 177.459Z" fill="#664320"/>
<path d="M109.99 178.486C109.983 178.444 110.024 178.415 110.066 178.387L111.921 177.814C111.989 177.802 112.037 177.815 112.041 177.836C112.048 177.879 112.006 177.907 111.965 177.936L110.11 178.509C110.065 178.517 110.016 178.503 109.99 178.486Z" fill="#664320"/>
<path d="M110.028 179.668C110.021 179.626 110.062 179.597 110.104 179.568L111.959 178.995C112.026 178.984 112.075 178.997 112.079 179.018C112.082 179.039 112.044 179.089 112.003 179.117L110.148 179.691C110.08 179.702 110.031 179.689 110.028 179.668Z" fill="#664320"/>
<path d="M110.152 180.813C110.145 180.771 110.187 180.742 110.228 180.714L112.083 180.14C112.151 180.129 112.2 180.142 112.203 180.163C112.21 180.205 112.169 180.234 112.127 180.263L110.272 180.836C110.231 180.865 110.159 180.855 110.152 180.813Z" fill="#664320"/>
<path d="M110.277 181.958C110.269 181.916 110.311 181.888 110.353 181.859L112.207 181.286C112.275 181.274 112.324 181.288 112.327 181.309C112.331 181.33 112.293 181.379 112.251 181.408L110.397 181.981C110.355 182.01 110.306 181.997 110.277 181.958Z" fill="#664320"/>
<path d="M110.585 183.094C110.578 183.052 110.62 183.023 110.661 182.995L112.516 182.422C112.584 182.41 112.633 182.423 112.636 182.444C112.64 182.466 112.602 182.515 112.56 182.544L110.705 183.117C110.664 183.146 110.615 183.132 110.585 183.094Z" fill="#664320"/>
<path d="M110.845 184.217C110.838 184.174 110.88 184.146 110.921 184.117L112.776 183.544C112.844 183.533 112.893 183.546 112.896 183.567C112.903 183.609 112.862 183.638 112.82 183.666L110.965 184.239C110.901 184.272 110.852 184.259 110.845 184.217Z" fill="#664320"/>
<path d="M111.079 185.322C111.072 185.28 111.114 185.251 111.155 185.222L113.01 184.649C113.078 184.638 113.127 184.651 113.13 184.672C113.137 184.714 113.096 184.743 113.054 184.772L111.199 185.345C111.135 185.377 111.086 185.364 111.079 185.322Z" fill="#664320"/>
<path d="M121.036 163.593C120.832 163.627 120.63 163.532 120.576 163.347L94.0129 84.7867C93.9547 84.5805 94.0582 84.3686 94.277 84.2884C94.4993 84.2292 94.724 84.3209 94.8047 84.5232L121.368 163.083C121.426 163.29 121.322 163.501 121.103 163.582C121.081 163.585 121.058 163.589 121.036 163.593Z" fill="#857366"/>
<path d="M122.808 163.358C123.086 164.175 122.804 164.979 122.186 165.17C122.118 165.181 122.076 165.21 122.005 165.2C121.433 165.254 120.818 164.775 120.557 164.063C120.55 164.021 120.521 163.983 120.51 163.92C120.325 163.238 120.538 162.576 121.003 162.303C121.044 162.274 121.109 162.242 121.176 162.23C121.821 162.056 122.53 162.541 122.808 163.358Z" fill="#664320"/>
<path d="M122.213 163.545C122.454 164.282 122.364 164.988 122.009 165.221C121.437 165.275 120.821 164.796 120.561 164.084C120.554 164.042 120.524 164.004 120.514 163.941C120.328 163.259 120.541 162.597 121.006 162.324C121.465 162.289 121.971 162.808 122.213 163.545Z" fill="#2E1E0E"/>
<path d="M121.036 163.593C120.968 163.605 120.897 163.595 120.825 163.585C120.604 163.515 120.497 163.295 120.578 163.087L165.366 43.6266C165.447 43.4185 165.685 43.3135 165.906 43.3841C166.127 43.4547 166.234 43.6742 166.153 43.8823L121.365 163.343C121.315 163.459 121.194 163.566 121.036 163.593Z" fill="#857366"/>
<path d="M121.036 163.593C120.99 163.601 120.923 163.612 120.874 163.599C120.656 163.549 120.527 163.334 120.563 163.133L149.73 54.608C149.789 54.4037 150.023 54.2777 150.237 54.3063C150.454 54.356 150.584 54.5717 150.548 54.7721L121.38 163.297C121.338 163.456 121.194 163.566 121.036 163.593Z" fill="#857366"/>
<path d="M121.035 163.593C120.99 163.601 120.945 163.608 120.896 163.595C120.679 163.545 120.53 163.355 120.566 163.154L142.88 61.4902C142.939 61.286 143.147 61.1428 143.361 61.1714C143.578 61.221 143.727 61.4119 143.691 61.6123L121.377 163.276C121.334 163.435 121.194 163.566 121.035 163.593Z" fill="#857366"/>
<path d="M113.638 12.2189C100.739 11.6568 86.5438 13.4522 72.2442 17.9222C72.1123 17.9661 72.0029 18.0062 71.8674 18.0291C32.4439 30.4192 8.57196 67.2444 11.1079 92.3467C11.1293 92.4726 11.1803 92.6368 11.235 92.822C11.4476 93.3908 12.0835 93.7153 12.735 93.5835C20.8351 92.0195 30.7772 92.412 41.4636 96.3722C56.5329 90.0009 75.0608 86.76 94.8873 86.1076C108.511 76.8272 133.167 66.6965 144.314 64.0556C151.671 55.23 159.307 49.1437 165.964 45.5124C166.497 45.228 166.75 44.6667 166.613 44.1284C166.555 43.9222 166.496 43.7161 166.4 43.5595C157.957 29.8025 136.178 13.1812 113.638 12.2189Z" fill="#927272"/>
<path d="M166.397 43.5387C159.541 47.0955 151.535 53.3307 143.832 62.582C138.164 51.4877 127.412 33.4339 118.556 26.7017C104.401 15.9841 87.4255 11.6617 71.7396 16.4524C86.0427 12.0035 100.238 10.208 113.159 10.7664C136.285 11.7591 158.283 29.1211 166.397 43.5387Z" fill="url(#paint3_linear_0_96)"/>
<path d="M71.3626 16.5593C45.7714 24.6017 35.2234 63.1267 40.9849 94.9196C29.7779 90.7666 19.4208 90.5307 11.1079 92.3468C8.98958 77.1098 14.7589 51.7912 30.7341 38.2899C41.4081 29.2923 55.3247 21.604 71.3626 16.5593Z" fill="url(#paint4_linear_0_96)"/>
<path d="M143.832 62.582C132.685 65.2229 108.029 75.3536 94.4053 84.634L71.3628 16.5594C71.4947 16.5154 71.6041 16.4753 71.7396 16.4524C87.4255 11.6617 104.378 15.988 118.534 26.7055C127.412 33.4338 138.164 51.4877 143.832 62.582Z" fill="url(#paint5_linear_0_96)"/>
<path d="M40.985 94.9196C56.0544 88.5483 74.5823 85.3074 94.4087 84.6549L71.3626 16.5593C45.7715 24.6017 35.2235 63.1267 40.985 94.9196Z" fill="url(#paint6_linear_0_96)"/>
<path d="M125.135 194.598C125.124 194.635 125.139 195.139 125.145 195.16L143.569 189.764L142.107 189.007C141.991 188.876 141.808 188.587 141.776 188.506C141.735 188.405 141.678 188.286 141.748 188.187C141.804 188.107 141.821 187.921 141.822 187.838L141.245 187.375C141.1 187.259 140.256 186.942 140.327 186.922C140.384 186.905 140.935 186.872 141.203 186.857L141.049 186.71C140.782 186.627 140.194 186.446 139.983 186.39C139.772 186.335 139.107 186.29 138.8 186.274L138.594 186.402C138.563 186.408 138.462 186.418 138.312 186.417C138.123 186.416 137.663 186.314 137.668 186.143C137.672 186.006 137.628 185.82 137.606 185.744L137.85 185.785L137.238 184.869L137.755 184.786L137.691 184.568C137.672 184.501 137.907 184.474 138.027 184.469L138.235 184.803C138.517 184.919 138.92 185.581 139.087 185.897L139.059 185.803L138.657 184.77C138.647 184.735 138.567 184.569 138.328 184.178C138.03 183.69 137.49 183.317 137.475 183.266L137.456 183.203L138.878 183.904C138.747 183.773 138.433 183.468 138.223 183.295C138.013 183.121 137.491 182.907 137.256 182.822C137.218 182.743 137.13 182.565 137.081 182.489C137.032 182.413 136.779 182.126 136.659 181.992C136.854 181.954 137.275 181.871 137.4 181.843C137.524 181.816 137.975 181.633 138.185 181.545L134.815 180.828C134.708 180.743 134.491 180.562 134.471 180.523C134.45 180.484 134.565 180.431 134.625 180.41C135.158 180.326 135.746 180.526 135.973 180.636C135.928 180.555 135.828 180.367 135.796 180.259C135.757 180.124 135.47 180.05 135.42 180.03C135.38 180.015 135.331 179.955 135.312 179.927C136.156 179.679 136.315 179.43 136.346 179.421C136.37 179.414 136.396 179.353 136.406 179.324L136.216 179.278C136.013 179.255 135.584 179.206 135.485 179.199C135.386 179.192 135.111 179.166 134.986 179.153C135.143 179.062 135.468 178.877 135.509 178.865C135.549 178.853 135.722 178.674 135.803 178.587C135.791 178.571 135.757 178.544 135.716 178.556C135.665 178.571 134.867 178.748 134.72 178.813C134.574 178.879 134.578 178.855 134.521 178.849C134.475 178.845 134.262 178.835 134.162 178.83C134.263 178.65 134.485 178.268 134.557 178.184C134.648 178.079 134.865 177.462 134.869 177.438C134.872 177.419 134.947 177.19 134.984 177.077L135.151 176.442C135.208 176.237 135.327 175.815 135.339 175.766C135.351 175.717 135.33 175.697 135.318 175.693C135.039 175.85 134.476 176.168 134.446 176.185C134.416 176.203 134.077 176.335 133.912 176.398L134.417 175.788C134.515 175.631 134.712 175.311 134.721 175.281C134.73 175.251 135.058 174.645 135.22 174.345L135.502 173.687L135.661 173.212L135.856 172.522C135.909 172.289 136.021 171.806 136.047 171.744C136.08 171.667 136.08 171.441 136.066 171.468C136.054 171.489 136.001 171.622 135.975 171.686C135.878 171.846 135.679 172.175 135.654 172.209C135.622 172.252 135.365 172.542 135.302 172.628C135.238 172.714 134.785 173.051 134.665 173.131C134.545 173.211 133.73 173.596 133.679 173.611C133.638 173.623 133.188 173.733 132.968 173.786C132.827 173.808 132.539 173.853 132.512 173.852C132.478 173.85 132.118 173.978 132.074 173.98C132.039 173.981 131.977 173.974 131.95 173.971C132.081 173.775 132.346 173.379 132.368 173.363C132.39 173.348 132.73 172.652 132.898 172.305L133.177 171.603L133.426 170.83C133.461 170.726 133.536 170.514 133.55 170.501C133.564 170.488 133.53 170.458 133.511 170.444L132.695 170.977L131.745 171.616C131.54 171.747 131.128 172.013 131.114 172.026C131.097 172.043 130.476 172.45 130.459 172.467C130.442 172.483 130.004 172.724 129.977 172.743C129.949 172.763 129.563 172.876 129.532 172.885C129.502 172.894 129.328 172.979 129.29 173.001C129.252 173.023 128.793 173.417 128.776 173.433C128.759 173.45 128.403 173.78 128.375 173.799C128.348 173.818 127.747 174.367 127.739 174.38C127.734 174.391 127.544 174.607 127.45 174.713C127.438 174.721 127.408 174.735 127.389 174.731C127.366 174.727 127.354 174.685 127.361 174.672C127.367 174.661 127.578 174.221 127.683 174.002C127.73 173.872 127.824 173.606 127.827 173.587C127.831 173.564 127.95 173.179 127.947 173.168C127.944 173.158 128.038 172.837 128.049 172.8C128.058 172.77 128.11 172.357 128.135 172.154C128.141 172.073 128.154 171.9 128.158 171.854C128.162 171.808 128.138 171.736 128.125 171.706C128.109 171.725 128.073 171.768 128.059 171.781C128.042 171.798 127.758 172.073 127.734 172.102C127.709 172.132 127.405 172.413 127.385 172.419C127.364 172.425 126.51 173.24 126.502 173.253C126.495 173.266 125.916 173.966 125.889 173.986C125.861 174.005 125.395 174.638 125.361 174.671C125.333 174.697 125.089 175.074 124.97 175.259C124.954 175.267 124.924 175.261 124.932 175.169C124.943 175.053 124.914 174.542 124.909 174.374C124.905 174.24 124.618 173.056 124.475 172.481L124.417 172.284C124.411 172.263 124.299 172.296 124.295 172.32C124.291 172.343 124.239 172.392 124.21 172.446C124.182 172.499 124.171 172.537 124.164 172.55C124.158 172.561 124.045 173.138 123.99 173.425C123.951 173.568 123.873 173.856 123.876 173.864C123.878 173.873 123.744 174.268 123.676 174.464L123.464 173.816L123.181 174.395C123.174 174.386 123.158 174.357 123.146 174.315C123.131 174.263 123.115 174.132 123.126 174.095C123.135 174.065 123.115 173.884 123.104 173.797L122.81 174.413L122.56 175.141C122.491 175.395 122.347 175.921 122.326 176C122.299 176.098 122.357 176.972 122.365 177.072C122.372 177.171 122.548 177.582 122.607 177.746C122.654 177.876 122.911 178.318 123.034 178.523C123.108 178.614 123.264 178.803 123.29 178.832C123.323 178.867 123.512 179.06 123.544 179.096C123.571 179.124 123.957 179.524 124.148 179.72L124.387 179.933C124.281 179.922 124.015 179.893 123.801 179.856C123.533 179.81 122.848 179.356 122.692 179.278C122.536 179.199 122.077 178.578 121.985 178.413C121.892 178.248 121.601 177.408 121.571 177.304C121.54 177.2 121.477 176.609 121.459 176.547C121.441 176.485 121.417 176.254 121.394 176.137C121.371 176.02 121.389 174.502 121.39 174.468C121.391 174.434 121.386 173.815 121.384 173.77C121.382 173.735 121.364 173.565 121.356 173.485C121.334 173.574 121.287 173.763 121.272 173.803C121.254 173.853 121.129 174.33 121.111 174.347C121.094 174.363 121.043 174.604 121.029 174.63C121.015 174.657 120.956 175.058 120.949 175.071C120.941 175.085 120.81 176.218 120.813 176.228C120.816 176.239 120.8 176.785 120.796 176.809C120.792 176.833 120.817 177.446 120.816 177.48C120.815 177.514 120.854 177.909 120.85 177.933C120.846 177.952 120.955 178.654 121.009 179.003L121.292 180.117C121.323 180.198 121.373 180.346 121.32 180.289C121.255 180.218 121.078 180.066 120.987 179.98C120.914 179.912 120.682 179.844 120.575 179.819C120.631 179.972 120.747 180.294 120.767 180.361C120.791 180.444 120.712 180.399 120.669 180.367C120.627 180.334 120.321 179.746 120.303 179.684C120.288 179.634 120.132 179.253 120.056 179.068C120.046 179.109 120.02 179.253 119.996 179.503C119.966 179.817 120.219 180.713 120.249 180.817C120.28 180.921 120.5 181.409 120.47 181.418C120.445 181.425 120.052 181.638 119.858 181.744L119.868 181.775L120.576 182.155L120.558 182.171C120.55 182.181 120.53 182.202 120.513 182.207C120.493 182.213 120.414 182.281 120.383 182.29C120.353 182.299 120.266 182.381 120.218 182.406C120.171 182.431 120.18 182.462 120.196 182.48C120.212 182.498 120.878 182.732 120.935 182.738C120.98 182.743 121.597 183.025 121.9 183.166C121.899 183.174 121.893 183.195 121.882 183.217C121.87 183.238 121.828 183.285 121.808 183.306L121.975 183.234C121.965 183.275 121.942 183.362 121.931 183.383C121.919 183.404 121.912 183.471 121.91 183.502C121.951 183.49 122.046 183.467 122.099 183.469C122.167 183.472 123.052 183.1 123.1 183.074C123.147 183.049 124.126 182.469 124.146 182.463C124.167 182.457 124.273 182.404 124.303 182.395L124.507 182.335C124.537 182.326 124.61 182.35 124.613 182.36C124.616 182.371 124.605 182.408 124.598 182.421C124.591 182.434 124.544 182.426 124.537 182.439C124.53 182.452 124.512 182.503 124.489 182.577C124.471 182.637 124.502 182.671 124.52 182.681C124.531 182.693 124.555 182.718 124.566 182.724C124.579 182.731 124.653 182.721 124.715 182.782C124.765 182.83 124.835 182.841 124.865 182.84C124.859 182.845 124.839 182.858 124.807 182.868C124.766 182.88 124.701 182.921 124.694 182.935C124.687 182.948 124.712 182.997 124.745 183.033C124.771 183.061 124.915 183.111 124.984 183.132L124.912 183.153L124.831 183.177C124.803 183.17 124.743 183.155 124.724 183.152C124.706 183.148 124.614 183.127 124.571 183.118L124.586 183.17C124.588 183.178 124.72 183.224 124.785 183.247C124.607 183.303 124.16 183.45 123.803 183.59C123.447 183.731 123.465 184.081 123.519 184.238L123.917 184.844L124.269 185.327L124.107 185.567C124.058 185.66 123.925 185.916 123.793 186.189C123.628 186.531 123.556 187.263 123.548 187.31C123.54 187.358 123.522 188.051 123.521 188.086C123.52 188.12 123.622 188.88 123.676 189.101C123.719 189.278 123.77 189.333 123.79 189.339C124.004 188.472 124.436 187.889 124.625 187.706L126.391 187.098L126.397 187.119L126.435 187.21C126.427 187.246 126.41 187.328 126.403 187.366C126.397 187.404 126.427 187.396 126.443 187.388C126.463 187.356 126.504 187.286 126.507 187.267C126.511 187.248 126.585 187.245 126.622 187.245L126.675 187.275C126.68 187.277 126.69 187.279 126.695 187.269C126.703 187.255 126.747 187.22 126.76 187.261C126.772 187.303 126.765 187.429 126.767 187.474C126.769 187.518 126.722 187.622 126.731 187.653C126.74 187.684 126.598 188.065 126.591 188.078C126.583 188.092 126.427 188.386 126.417 188.389C126.406 188.392 126.179 188.707 126.161 188.723C126.147 188.736 125.972 188.933 125.887 189.029C125.84 189.084 125.744 189.197 125.73 189.21C125.716 189.224 125.703 189.245 125.698 189.254L125.735 189.265C125.911 189.274 126.265 189.293 126.275 189.299C126.288 189.306 126.274 189.333 126.267 189.347C126.26 189.36 126.083 189.66 126.076 189.673C126.07 189.684 125.947 189.85 125.886 189.932L125.893 189.953L126.398 190.019C126.311 190.075 126.134 190.189 126.12 190.202C126.107 190.215 125.987 190.275 125.929 190.303C125.933 190.317 125.944 190.346 125.955 190.352C125.965 190.358 126.122 190.382 126.199 190.393C126.2 190.397 126.2 190.407 126.195 190.417C126.188 190.431 126.08 190.552 126.083 190.563C126.085 190.571 126.221 190.609 126.289 190.627L125.842 191.209C125.853 191.21 125.882 191.213 125.912 191.222C125.941 191.232 126.353 191.183 126.556 191.158C126.502 191.238 126.391 191.402 126.38 191.424C126.368 191.445 126.319 191.494 126.296 191.516C126.303 191.525 126.32 191.545 126.339 191.549C126.358 191.552 126.702 191.581 126.872 191.596L126.838 191.628C126.643 191.817 126.246 192.201 126.218 192.227C126.183 192.26 126.061 192.296 126.01 192.311L126.01 192.311C125.97 192.323 125.652 192.558 125.499 192.675C125.676 192.601 126.027 192.459 126.018 192.489C126.007 192.526 125.279 193.168 125.323 193.167C125.358 193.165 125.682 192.937 125.84 192.823C125.847 192.833 125.861 192.862 125.865 192.906C125.869 192.95 125.832 193.032 125.813 193.068L125.283 193.483L124.985 193.785L125.53 193.422C125.355 193.654 125.146 194.561 125.135 194.598Z" fill="#131313" fill-opacity="0.31"/>
</g>
<defs>
<linearGradient id="paint0_linear_0_96" x1="110.893" y1="137.393" x2="132.098" y2="204.862" gradientUnits="userSpaceOnUse">
<stop offset="0.1939" stop-color="#D67100"/>
<stop offset="0.2667" stop-color="#AD5B00"/>
<stop offset="0.3394" stop-color="#D26C00"/>
<stop offset="0.5863" stop-color="#F9F290"/>
<stop offset="0.6099" stop-color="#F7E47D"/>
<stop offset="0.768" stop-color="#E98800"/>
<stop offset="0.806" stop-color="#E98800"/>
<stop offset="0.825" stop-color="#EA8D07"/>
<stop offset="0.8534" stop-color="#EC9C1C"/>
<stop offset="0.8876" stop-color="#F0B53D"/>
<stop offset="0.9261" stop-color="#F5D66B"/>
<stop offset="0.9537" stop-color="#F9F290"/>
<stop offset="1" stop-color="#D47F39"/>
</linearGradient>
<radialGradient id="paint1_radial_0_96" cx="0" cy="0" r="1" gradientUnits="userSpaceOnUse" gradientTransform="translate(123.838 179.614) rotate(71.3151) scale(20.8481 22.3478)">
<stop offset="0.1798" stop-color="#F8F0E4"/>
<stop offset="0.5899" stop-color="#F2D78F"/>
<stop offset="1" stop-color="#C58511"/>
</radialGradient>
<linearGradient id="paint2_linear_0_96" x1="94.8501" y1="253.132" x2="136.695" y2="150.957" gradientUnits="userSpaceOnUse">
<stop stop-color="#E59116"/>
<stop offset="0.1394" stop-color="#FFFF7F"/>
<stop offset="0.2424" stop-color="#FFFFD6"/>
<stop offset="0.4182" stop-color="#FFD139"/>
<stop offset="0.5576" stop-color="#EBAA41"/>
<stop offset="0.6083" stop-color="#F2BF44"/>
<stop offset="0.6921" stop-color="#FBDC48"/>
<stop offset="0.74" stop-color="#FFE74A"/>
<stop offset="0.7746" stop-color="#FEE249"/>
<stop offset="0.8136" stop-color="#F9D545"/>
<stop offset="0.8546" stop-color="#F2BE3F"/>
<stop offset="0.8909" stop-color="#EAA438"/>
<stop offset="1" stop-color="#FFEE9D"/>
</linearGradient>
<linearGradient id="paint3_linear_0_96" x1="112.522" y1="37.068" x2="135.742" y2="8.08735" gradientUnits="userSpaceOnUse">
<stop stop-color="#FDC800"/>
<stop offset="0.5366" stop-color="#EF7718"/>
<stop offset="1" stop-color="#E3312D"/>
</linearGradient>
<linearGradient id="paint4_linear_0_96" x1="6.28625" y1="51.3078" x2="58.0609" y2="57.963" gradientUnits="userSpaceOnUse">
<stop stop-color="#FDC800"/>
<stop offset="1" stop-color="#E3312D"/>
</linearGradient>
<linearGradient id="paint5_linear_0_96" x1="79.4191" y1="56.4743" x2="123.574" y2="26.7422" gradientUnits="userSpaceOnUse">
<stop stop-color="#FDC800"/>
<stop offset="1" stop-color="#E3312D"/>
</linearGradient>
<linearGradient id="paint6_linear_0_96" x1="44.0264" y1="58.6165" x2="90.6956" y2="48.698" gradientUnits="userSpaceOnUse">
<stop stop-color="#FDC800"/>
<stop offset="1" stop-color="#E3312D"/>
</linearGradient>
<clipPath id="clip0_0_96">
<rect width="161.377" height="200.41" fill="white" transform="matrix(0.986004 -0.166724 0.16714 0.985933 0.0908203 27.3579)"/>
</clipPath>
</defs>
</svg>
