<svg width="24" height="24" viewBox="0 0 24 24" fill="none" xmlns="http://www.w3.org/2000/svg">
<g clip-path="url(#clip0_0_754)">
<path d="M12 23.2001C18.1856 23.2001 23.2 18.1856 23.2 12C23.2 5.81446 18.1856 0.800049 12 0.800049C5.8144 0.800049 0.799988 5.81446 0.799988 12C0.799988 18.1856 5.8144 23.2001 12 23.2001Z" fill="#262964"/>
<path d="M12 21.6C17.302 21.6 21.6 17.302 21.6 12C21.6 6.69809 17.302 2.40002 12 2.40002C6.69809 2.40002 2.40002 6.69809 2.40002 12C2.40002 17.302 6.69809 21.6 12 21.6Z" fill="#555ABE"/>
<path d="M15.9162 12.8828C15.8992 12.8817 12.0509 15.1622 12.0005 15.1817C11.9892 15.1752 8.10709 12.8776 8.08862 12.8799C8.09802 12.8937 11.9979 18.4 12.0005 18.4C12.0032 18.4 15.9162 12.8828 15.9162 12.8828Z" fill="white"/>
<path d="M12.0024 5.59998L8.10132 12.1244L12.0024 14.4352L15.9035 12.1244L12.0024 5.59998Z" fill="white"/>
</g>
<defs>
<clipPath id="clip0_0_754">
<rect width="24" height="24" fill="white"/>
</clipPath>
</defs>
</svg>
