<svg width="29" height="29" viewBox="0 0 29 29" fill="none" xmlns="http://www.w3.org/2000/svg">
<path d="M14.6262 2.60085C18.448 2.60085 18.9215 2.60085 20.4434 2.66841C21.8301 2.73596 22.6079 2.9724 23.1152 3.17507C23.7917 3.44529 24.2651 3.74928 24.7725 4.25594C25.2798 4.7626 25.5841 5.23548 25.8547 5.91103C26.0576 6.41769 26.2944 7.16079 26.362 8.57944C26.4297 10.0994 26.4297 10.5385 26.4297 14.3891C26.4297 18.2397 26.4297 18.6789 26.362 20.1988C26.2944 21.5837 26.0576 22.3606 25.8547 22.8672C25.5841 23.5428 25.2798 24.0157 24.7725 24.5223C24.2651 25.029 23.7917 25.333 23.1152 25.6032C22.6079 25.8059 21.8639 26.0423 20.4434 26.1099C18.9215 26.1774 18.4818 26.1774 14.6262 26.1774C10.8045 26.1774 10.331 26.1774 8.80908 26.1099C7.42243 26.0423 6.64455 25.8059 6.13724 25.6032C5.46083 25.333 4.98734 25.029 4.48003 24.5223C3.97272 24.0157 3.66833 23.5428 3.39777 22.8672C3.19484 22.3606 2.9581 21.6175 2.89046 20.1988C2.82281 18.6789 2.82281 18.2397 2.82281 14.3891C2.82281 10.5385 2.82281 10.0994 2.89046 8.57944C2.9581 7.19457 3.19484 6.41769 3.39777 5.91103C3.66833 5.23548 3.97272 4.7626 4.48003 4.25594C4.98734 3.74928 5.46083 3.44529 6.13724 3.17507C6.64455 2.9724 7.38861 2.73596 8.80908 2.66841C10.331 2.60085 10.8045 2.60085 14.6262 2.60085ZM14.6262 0C10.7369 0 10.2295 0 8.70762 0.101332C7.18569 0.168887 6.13724 0.405328 5.22408 0.776878C4.2771 1.14843 3.46541 1.62131 2.68753 2.43197C1.87584 3.24262 1.40235 4.0195 1.03032 4.96527C0.65829 5.87725 0.421545 6.92435 0.353904 8.44433C0.252441 9.96431 0.252441 10.471 0.252441 14.3554C0.252441 18.2397 0.252441 18.7464 0.353904 20.2664C0.421545 21.7864 0.65829 22.8335 1.03032 23.7455C1.40235 24.6912 1.87584 25.5019 2.68753 26.2788C3.49923 27.0894 4.2771 27.5623 5.22408 27.9338C6.13724 28.3054 7.18569 28.5418 8.70762 28.6094C10.2295 28.7107 10.7369 28.7107 14.6262 28.7107C18.5156 28.7107 19.0229 28.7107 20.5449 28.6094C22.0668 28.5418 23.1152 28.3054 24.0284 27.9338C24.9754 27.5623 25.7871 27.0894 26.5649 26.2788C27.3766 25.4681 27.8501 24.6912 28.2222 23.7455C28.5942 22.8335 28.8309 21.7864 28.8986 20.2664C29 18.7464 29 18.2397 29 14.3554C29 10.471 29 9.96431 28.8986 8.44433C28.8309 6.92435 28.5942 5.87725 28.2222 4.96527C27.8501 4.0195 27.3766 3.20884 26.5649 2.43197C25.7533 1.62131 24.9754 1.14843 24.0284 0.776878C23.1152 0.405328 22.0668 0.168887 20.5449 0.101332C19.0229 0 18.5156 0 14.6262 0Z" fill="#FFBD1D"/>
<path d="M14.6262 6.99194C10.5339 6.99194 7.2533 10.3021 7.2533 14.3554C7.2533 18.4087 10.5677 21.7189 14.6262 21.7189C18.7185 21.7189 21.9991 18.4087 21.9991 14.3554C21.9991 10.3021 18.7185 6.99194 14.6262 6.99194ZM14.6262 19.1518C11.9882 19.1518 9.82367 17.0238 9.82367 14.3554C9.82367 11.687 11.9544 9.55902 14.6262 9.55902C17.298 9.55902 19.4287 11.687 19.4287 14.3554C19.4287 17.0238 17.2642 19.1518 14.6262 19.1518Z" fill="#FFBD1D"/>
<path d="M22.3035 8.41037C23.2561 8.41037 24.0283 7.63912 24.0283 6.68773C24.0283 5.73634 23.2561 4.96509 22.3035 4.96509C21.3509 4.96509 20.5786 5.73634 20.5786 6.68773C20.5786 7.63912 21.3509 8.41037 22.3035 8.41037Z" fill="#FFBD1D"/>
</svg>
