<svg width="27" height="23" viewBox="0 0 27 23" fill="none" xmlns="http://www.w3.org/2000/svg">
<path d="M26.9625 1.4772C26.85 1.1809 26.7376 1.10682 26.5876 1.06978C26.1752 0.884596 25.5004 1.10682 25.5004 1.10682C25.5004 1.10682 1.84349 9.51438 0.493813 10.4403C0.193885 10.6255 0.118902 10.7737 0.0439203 10.8848C-0.181026 11.5514 0.531304 11.8478 0.531304 11.8478L6.64235 13.8107C6.64235 13.8107 6.86729 13.8478 6.94228 13.8107C8.32945 12.9589 20.889 5.10689 21.6013 4.84763C21.7138 4.81059 21.7887 4.84763 21.7887 4.9217C21.4888 5.92172 10.5789 15.5145 10.5789 15.5145C10.5789 15.5145 10.5414 15.5515 10.5039 15.6256L9.94156 21.5887C9.94156 21.5887 9.71662 23.4035 11.5537 21.5887C12.8659 20.2923 14.1406 19.2182 14.7404 18.6997C16.8774 20.1072 19.1269 21.6998 20.1016 22.5146C20.589 22.922 21.0014 22.9961 21.3388 22.9961C22.2761 22.9591 22.5386 21.959 22.5386 21.959C22.5386 21.959 26.8125 4.81059 26.9625 2.51425C26.9625 2.29203 27 2.14388 27 1.99573C27 1.7735 27 1.58831 26.9625 1.4772Z" fill="#FFBD1D"/>
</svg>
