<svg width="30" height="24" viewBox="0 0 30 24" fill="none" xmlns="http://www.w3.org/2000/svg">
<path d="M9.45017 23.9961C20.7904 23.9961 26.9759 15.1524 26.9759 7.47497C26.9759 7.21581 26.9759 6.98905 26.9416 6.7299C28.1443 5.92004 29.1753 4.88342 30 3.71722C28.9003 4.17074 27.6976 4.49469 26.4605 4.62426C27.7663 3.91159 28.7285 2.77778 29.2096 1.41722C28.0069 2.0975 26.701 2.55102 25.2921 2.84257C24.1581 1.70877 22.543 0.996094 20.7904 0.996094C17.3883 0.996094 14.6392 3.58764 14.6392 6.79469C14.6392 7.24821 14.7079 7.70173 14.811 8.12285C9.65636 7.89609 5.12027 5.5637 2.09622 2.06511C1.58076 2.90736 1.27148 3.91159 1.27148 4.9806C1.27148 6.98905 2.37113 8.77074 4.02062 9.80736C3.02405 9.77497 2.06186 9.51581 1.23711 9.09469C1.23711 9.12708 1.23711 9.12708 1.23711 9.15947C1.23711 11.9778 3.3677 14.3102 6.18557 14.8609C5.6701 14.9905 5.12027 15.0553 4.57045 15.0553C4.15808 15.0553 3.78007 15.0229 3.40206 14.9581C4.19244 17.2581 6.46048 18.9426 9.14089 18.975C7.04467 20.5299 4.36426 21.4693 1.47766 21.4693C0.996564 21.4693 0.4811 21.4369 0 21.4045C2.71478 23.0243 5.97938 23.9961 9.45017 23.9961Z" fill="#FFBD1D"/>
</svg>
