<svg width="22" height="22" viewBox="0 0 22 22" fill="none" xmlns="http://www.w3.org/2000/svg">
<path d="M11 22C17.0751 22 22 17.0751 22 11C22 4.92487 17.0751 0 11 0C4.92487 0 0 4.92487 0 11C0 17.0751 4.92487 22 11 22Z" fill="#22B573"/>
<path d="M5.15445 10.328C5.15445 9.63698 7.77192 9.07373 11 9.07373C14.228 9.07373 16.8455 9.63698 16.8455 10.328" fill="#22B573"/>
<path d="M5.15445 10.328C5.15445 9.63698 7.77192 9.07373 11 9.07373C14.228 9.07373 16.8455 9.63698 16.8455 10.328" stroke="white" stroke-width="0.632358" stroke-miterlimit="10"/>
<path d="M10.271 6.71649H6.91989V5.50952H15.0752V6.71649H11.7099V16.519H10.271V6.71649Z" fill="white" stroke="white" stroke-width="1.5809" stroke-miterlimit="10"/>
<path d="M16.8455 10.3279C16.8455 11.0189 14.228 11.5822 11 11.5822C7.77192 11.5822 5.15445 11.0189 5.15445 10.3279" fill="#22B573"/>
<path d="M16.8455 10.3279C16.8455 11.0189 14.228 11.5822 11 11.5822C7.77192 11.5822 5.15445 11.0189 5.15445 10.3279" stroke="white" stroke-width="0.632358" stroke-miterlimit="10"/>
</svg>
